{"title":"LowRiders.2017.CAM.READNFO.XViD-26k","magnet":"magnet:?xt=urn:btih:2e1282bde27a940515275b24c343cc50852ac6e4&dn=LowRiders.2017.CAM.READNFO.XViD-26k&tr=udp%3A%2F%2Ftracker.leechers-paradise.org%3A6969&tr=udp%3A%2F%2Fzer0day.ch%3A1337&tr=udp%3A%2F%2Fopen.demonii.com%3A1337&tr=udp%3A%2F%2Ftracker.coppersurfer.tk%3A6969&tr=udp%3A%2F%2Fexodus.desync.com%3A6969","uploader":"makintos13","categoryP":"video","categoryS":"movies","size":"1550630886","seeders":"1","leechers":"221","description":"screens:\r\n <a href=\"\nhttps://imgmak.com/zye\" rel=\"nofollow\" target=\"_NEW\">\nhttps://imgmak.com/zye</a>\r\n <a href=\"\nhttps://imgmak.com/zyg\" rel=\"nofollow\" target=\"_NEW\">\nhttps://imgmak.com/zyg</a>\r\n <a href=\"\nhttps://imgmak.com/zyo\" rel=\"nofollow\" target=\"_NEW\">\nhttps://imgmak.com/zyo</a>\r\n <a href=\"\nhttps://imgmak.com/zyN\" rel=\"nofollow\" target=\"_NEW\">\nhttps://imgmak.com/zyN</a>\r\n <a href=\"\nhttps://imgmak.com/zyQ\" rel=\"nofollow\" target=\"_NEW\">\nhttps://imgmak.com/zyQ</a>\r\n\r\nCover:\r\n <a href=\"\nhttps://imgmak.com/zyV\" rel=\"nofollow\" target=\"_NEW\">\nhttps://imgmak.com/zyV</a>\r\n\r\n\r\n\r\nComplete name : LowRiders.2017.CAM.READNFO.XViD-26k.avi \r\nFormat : AVI \r\nFormat/Info : Audio Video Interleave \r\nFile size : 1.37 GiB \r\nDuration : 1h 37mn \r\nOverall bit rate : 2 001 Kbps \r\n\r\nVideo \r\nID : 0 \r\nFormat : MPEG-4 Visual \r\nFormat profile : Advanced <a class=\"__cf_email__\" href=\"/cdn-cgi/l/email-protection\" data-cfemail=\"65360c08150900252950\">[email&#xA0;protected]</a><script data-cfhash=\"f9e31\" type=\"text/javascript\">/* <![CDATA[ */!function(t,e,r,n,c,a,p){try{t=document.currentScript||function(){for(t=document.getElementsByTagName('script'),e=t.length;e--;)if(t[e].getAttribute('data-cfhash'))return t[e]}();if(t&&(c=t.previousSibling)){p=t.parentNode;if(a=c.getAttribute('data-cfemail')){for(e='',r='0x'+a.substr(0,2)|0,n=2;a.length-n;n+=2)e+='%'+('0'+('0x'+a.substr(n,2)^r).toString(16)).slice(-2);p.replaceChild(document.createTextNode(decodeURIComponent(e)),c)}p.removeChild(t)}}catch(u){}}()/* ]]> */</script> \r\nFormat settings, BVOP : 2 \r\nFormat settings, QPel : Yes \r\nFormat settings, GMC : No warppoints \r\nFormat settings, Matrix : Default (H.263) \r\nMuxing mode : Packed bitstream \r\nCodec ID : XVID \r\nCodec ID/Hint : XviD \r\nDuration : 1h 37mn \r\nBit rate : 1 866 Kbps \r\nWidth : 720 pixels \r\nHeight : 304 pixels \r\nDisplay aspect ratio : 2.35:1 \r\nFrame rate : 29.970 fps \r\nColor space : YUV \r\nChroma subsampling : 4:2:0 \r\nBit depth : 8 bits \r\nScan type : Progressive \r\nCompression mode : Lossy \r\nBits/(Pixel*Frame) : 0.284 \r\nStream size : 1.28 GiB (93%) \r\nWriting library : XviD 67 \r\n\r\nAudio \r\nID : 1 \r\nFormat : MPEG Audio \r\nFormat version : Version 1 \r\nFormat profile : Layer 3 \r\nMode : Joint stereo \r\nMode extension : MS Stereo \r\nCodec ID : 55 \r\nCodec ID/Hint : MP3 \r\nDuration : 1h 37mn \r\nBit rate mode : Constant \r\nBit rate : 128 Kbps \r\nChannel(s) : 2 channels \r\nSampling rate : 48.0 KHz \r\nCompression mode : Lossy \r\nStream size : 89.6 MiB (6%) \r\nAlignment : Aligned on interleaves \r\nInterleave, duration : 133 ms (4.00 video frames) \r\nInterleave, preload duratio : 216 ms \r\nWriting library : LAME3.99r \r\nEncoding settings : -m j -V 4 -q 2 -lowpass 17 -b 128","last_updated":"2017-06-26T12:07:02.799Z","parsed":{"xt":"urn:btih:2e1282bde27a940515275b24c343cc50852ac6e4","dn":"LowRiders.2017.CAM.READNFO.XViD-26k","tr":["udp://exodus.desync.com:6969","udp://open.demonii.com:1337","udp://tracker.coppersurfer.tk:6969","udp://tracker.leechers-paradise.org:6969","udp://zer0day.ch:1337"],"infoHash":"2e1282bde27a940515275b24c343cc50852ac6e4","infoHashBuffer":{"type":"Buffer","data":[46,18,130,189,226,122,148,5,21,39,91,36,195,67,204,80,133,42,198,228]},"name":"LowRiders.2017.CAM.READNFO.XViD-26k","announce":["udp://exodus.desync.com:6969","udp://open.demonii.com:1337","udp://tracker.coppersurfer.tk:6969","udp://tracker.leechers-paradise.org:6969","udp://zer0day.ch:1337"],"urlList":[]}}